<svg width="375" height="457" viewBox="0 0 375 457" fill="none" xmlns="http://www.w3.org/2000/svg">
<path opacity="0.1" d="M209.465 116.305C190.104 115.632 171.665 109.387 154.057 102.553C136.449 95.7185 119.009 88.1457 100.112 84.5253C87.958 82.1964 74.0567 81.8675 64.2657 88.3789C54.8397 94.6571 51.7944 105.465 50.1581 115.504C48.9256 123.056 48.2016 131.005 51.576 138.072C53.9213 142.981 58.0794 147.107 60.9572 151.81C70.9696 168.169 63.8918 188.343 53.0448 204.317C47.9593 211.812 42.0512 218.966 38.1234 226.936C34.1957 234.906 32.3799 244.052 35.817 252.19C39.2213 260.262 47.3371 266.313 56.129 270.573C73.985 279.228 95.0178 281.703 115.542 283.105C160.961 286.211 206.62 284.866 252.159 283.521C269.013 283.022 285.938 282.516 302.517 279.912C311.725 278.465 321.228 276.172 327.914 270.63C336.398 263.595 338.501 251.684 332.814 242.862C323.277 228.066 296.917 224.392 290.243 208.514C286.575 199.772 290.342 190.038 295.675 181.93C307.115 164.543 326.287 149.287 327.295 129.412C327.989 115.761 318.772 102.089 304.521 95.6288C289.585 88.8603 268.869 89.7093 257.854 100.917C246.502 112.457 226.561 116.897 209.465 116.305Z" fill="#F37A20" fill-opacity="0.54"/>
<path fill-rule="evenodd" clip-rule="evenodd" d="M263.845 222.643L230.398 180.954C228.905 179.105 226.746 177.917 224.386 177.644C222.025 177.372 219.652 178.038 217.778 179.498L92.9646 279.305C92.017 280.066 91.2304 281.008 90.6507 282.076C90.0711 283.144 89.71 284.317 89.5886 285.526C89.4682 286.723 89.5935 287.931 89.957 289.077C90.3204 290.222 90.9143 291.282 91.7021 292.19L154.834 360.471L129.529 275.112C128.62 272.028 128.971 268.71 130.505 265.885C132.038 263.06 134.628 260.957 137.708 260.038L263.845 222.643Z" fill="#DB6036"/>
<path fill-rule="evenodd" clip-rule="evenodd" d="M148.717 316.566L163.445 366.243C163.584 366.684 163.778 367.106 164.023 367.497L164.074 367.667C164.717 368.666 165.667 369.431 166.78 369.847C167.894 370.263 169.113 370.307 170.254 369.974L316.114 326.732C316.813 326.531 317.466 326.193 318.034 325.738C318.602 325.284 319.074 324.721 319.424 324.083C319.773 323.445 319.993 322.744 320.07 322.021C320.148 321.297 320.081 320.565 319.874 319.868L305.147 270.191L148.717 316.566ZM196.561 346.077L166.966 354.851L165.086 348.509L194.681 339.735L196.561 346.077ZM205.484 329.633L163.206 342.167L161.326 335.825L203.604 323.291L205.484 329.633Z" fill="#FBA53E"/>
<path fill-rule="evenodd" clip-rule="evenodd" d="M285.448 223.138L139.588 266.38C138.187 266.795 137.007 267.75 136.31 269.035C135.613 270.32 135.455 271.83 135.87 273.231L139.317 284.858L295.747 238.482L292.3 226.856C291.884 225.454 290.929 224.275 289.644 223.578C288.359 222.881 286.85 222.722 285.448 223.138Z" fill="#9F2733"/>
<path fill-rule="evenodd" clip-rule="evenodd" d="M141.197 291.199L146.837 310.225L222.029 287.933L303.267 263.849L297.627 244.824L240.53 261.751L141.197 291.199Z" fill="#9F2733"/>
<path opacity="0.1" d="M203 394C253.258 394 294 388.627 294 382C294 375.373 253.258 370 203 370C152.742 370 112 375.373 112 382C112 388.627 152.742 394 203 394Z" fill="#F37A20" fill-opacity="0.54"/>
</svg>
