<svg width="248" height="243" viewBox="0 0 248 243" fill="none" xmlns="http://www.w3.org/2000/svg">
<g filter="url(#filter0_d_56_943)">
<path opacity="0.1" d="M143.442 27.2028C128.056 26.6534 113.402 21.5524 99.4096 15.9703C85.4168 10.3882 71.557 4.20293 56.5396 1.24583C46.8805 -0.656381 35.8332 -0.924986 28.0522 4.39339C20.5613 9.5213 18.1412 18.3486 16.8408 26.5484C15.8614 32.7166 15.2861 39.2095 17.9677 44.982C19.8315 48.9916 23.136 52.3613 25.4229 56.2024C33.3798 69.5643 27.7551 86.0419 19.1349 99.0888C15.0935 105.211 10.3983 111.054 7.27691 117.564C4.1555 124.074 2.71247 131.544 5.44401 138.19C8.14939 144.783 14.599 149.726 21.5859 153.205C35.7761 160.275 52.491 162.296 68.8017 163.442C104.896 165.979 141.181 164.88 177.371 163.781C190.765 163.373 204.216 162.961 217.391 160.834C224.708 159.652 232.261 157.779 237.574 153.252C244.316 147.506 245.988 137.778 241.468 130.572C233.889 118.487 212.941 115.486 207.637 102.517C204.722 95.3772 207.715 87.4265 211.954 80.8042C221.045 66.6023 236.281 54.1415 237.082 37.908C237.634 26.7584 230.309 15.5918 218.984 10.3149C207.114 4.78653 190.651 5.48002 181.898 14.6346C172.876 24.0602 157.029 27.6863 143.442 27.2028Z" fill="#F37A20" fill-opacity="0.54"/>
<path d="M139.946 141.725L138.942 141.9C138.646 141.952 138.446 142.241 138.497 142.545L141.227 159.023C141.278 159.327 141.559 159.532 141.856 159.48L142.859 159.305C143.156 159.253 143.355 158.965 143.305 158.66L140.574 142.183C140.524 141.878 140.242 141.673 139.946 141.725Z" fill="#3A3768"/>
<path d="M137.174 68.7555L85.9598 77.6952C80.9106 78.5765 77.514 83.4938 78.3732 88.6781L99.2968 214.933C100.156 220.118 104.946 223.606 109.995 222.725L161.209 213.785C166.258 212.904 169.655 207.986 168.796 202.802L147.872 76.5467C147.013 71.3624 142.223 67.8741 137.174 68.7555Z" fill="#9F2731"/>
<path d="M137.167 72.5397L129.194 73.9313L129.358 74.916C129.459 75.5289 129.442 76.1564 129.307 76.7625C129.173 77.3687 128.923 77.9416 128.573 78.4486C128.222 78.9556 127.778 79.3867 127.265 79.7173C126.752 80.048 126.181 80.2716 125.584 80.3755L100.23 84.8012C99.6333 84.9057 99.0222 84.8884 98.4318 84.7503C97.8414 84.6123 97.2832 84.3561 96.7892 83.9966C96.2951 83.637 95.875 83.1809 95.5526 82.6546C95.2303 82.1282 95.0121 81.5418 94.9105 80.9289L94.7473 79.9442L87.2839 81.247C85.82 81.5025 84.515 82.3447 83.656 83.5882C82.797 84.8317 82.4544 86.3748 82.7035 87.8779L103.61 214.027C103.859 215.53 104.679 216.87 105.89 217.752C107.102 218.635 108.604 218.987 110.068 218.731L159.951 210.024C161.415 209.768 162.72 208.926 163.579 207.683C164.438 206.439 164.781 204.896 164.531 203.393L143.627 77.2533C143.505 76.508 143.241 75.7948 142.85 75.1544C142.459 74.514 141.949 73.959 141.348 73.5212C140.748 73.0834 140.07 72.7714 139.353 72.603C138.635 72.4346 137.892 72.4131 137.167 72.5397Z" fill="#FBA53E"/>
<path d="M154.309 168.906L101.718 177.369L99.725 166.7L152.316 158.237L154.309 168.906Z" fill="#FEF2B6"/>
<path d="M157.877 187.972L105.28 196.436L103.287 185.768L155.884 177.303L157.877 187.972Z" fill="#FEF2B6"/>
<path d="M136.166 181.991L123.764 185.818C123.646 185.852 123.535 185.91 123.439 185.99C123.343 186.069 123.265 186.168 123.208 186.281C123.152 186.393 123.118 186.516 123.11 186.642C123.102 186.769 123.12 186.895 123.162 187.014L126.16 195.463C126.254 195.71 126.434 195.913 126.666 196.03C126.897 196.148 127.163 196.172 127.411 196.098L139.813 192.271C139.931 192.236 140.041 192.176 140.136 192.096C140.231 192.016 140.309 191.916 140.364 191.803C140.42 191.691 140.453 191.568 140.461 191.441C140.468 191.315 140.451 191.189 140.409 191.07L137.416 182.62C137.323 182.373 137.142 182.172 136.911 182.055C136.679 181.939 136.413 181.916 136.166 181.991ZM133.875 191.407L131.601 192.097L130.944 189.321C130.689 189.253 130.453 189.123 130.257 188.942C130.06 188.762 129.909 188.535 129.816 188.281C129.742 188.085 129.71 187.876 129.72 187.666C129.73 187.456 129.783 187.25 129.876 187.063C129.968 186.875 130.098 186.71 130.257 186.577C130.415 186.444 130.599 186.347 130.797 186.292C131.201 186.171 131.635 186.21 132.012 186.402C132.389 186.593 132.683 186.923 132.835 187.326C132.923 187.569 132.948 187.833 132.906 188.089C132.863 188.346 132.756 188.587 132.594 188.787L133.875 191.407Z" fill="#9F2731"/>
<path d="M134.84 181.722C134.62 181.787 134.385 181.766 134.179 181.662C133.974 181.559 133.814 181.38 133.731 181.161L133.438 180.336C133.028 179.21 132.235 178.275 131.205 177.705C130.175 177.134 128.978 176.966 127.836 177.232C127.259 177.36 126.715 177.613 126.242 177.976C125.769 178.338 125.378 178.801 125.095 179.333C124.811 179.864 124.643 180.452 124.6 181.056C124.558 181.661 124.643 182.267 124.849 182.835L125.185 183.788C125.223 183.894 125.24 184.006 125.233 184.119C125.227 184.231 125.197 184.341 125.147 184.441C125.097 184.541 125.027 184.629 124.942 184.7C124.856 184.77 124.757 184.822 124.652 184.851C124.432 184.919 124.195 184.899 123.989 184.795C123.784 184.691 123.624 184.511 123.543 184.291L123.259 183.488C122.982 182.739 122.854 181.941 122.885 181.141C122.916 180.34 123.103 179.555 123.437 178.831C123.771 178.107 124.244 177.46 124.828 176.929C125.412 176.397 126.094 175.992 126.835 175.739C128.439 175.189 130.189 175.295 131.72 176.035C133.25 176.774 134.445 178.09 135.056 179.709L135.391 180.656C135.429 180.763 135.445 180.877 135.438 180.991C135.431 181.104 135.4 181.215 135.348 181.316C135.296 181.416 135.224 181.505 135.136 181.574C135.049 181.644 134.948 181.695 134.84 181.722Z" fill="#9F2731"/>
<path d="M151.492 204.391L117.253 209.901L115.96 202.954L150.193 197.445L151.492 204.391Z" fill="#9F2731"/>
<path d="M128.93 167.495C128.979 167.748 128.978 168.009 128.926 168.261C128.874 168.514 128.773 168.753 128.628 168.964C128.483 169.175 128.298 169.354 128.085 169.489C127.871 169.625 127.632 169.714 127.383 169.753C126.871 169.831 126.348 169.704 125.924 169.399C125.5 169.093 125.206 168.632 125.104 168.111C125.055 167.858 125.056 167.597 125.108 167.345C125.16 167.092 125.261 166.853 125.406 166.642C125.551 166.431 125.736 166.252 125.95 166.116C126.164 165.981 126.402 165.891 126.651 165.853C127.164 165.773 127.687 165.899 128.111 166.205C128.536 166.511 128.829 166.973 128.93 167.495Z" fill="#9F2731"/>
<path d="M120.674 168.824C120.724 169.077 120.723 169.338 120.672 169.591C120.62 169.843 120.519 170.083 120.374 170.294C120.229 170.505 120.044 170.684 119.83 170.82C119.615 170.955 119.376 171.044 119.127 171.081C118.615 171.159 118.094 171.032 117.67 170.727C117.247 170.421 116.955 169.96 116.854 169.439C116.805 169.185 116.806 168.925 116.858 168.672C116.91 168.42 117.011 168.181 117.156 167.97C117.301 167.759 117.485 167.58 117.699 167.444C117.913 167.309 118.152 167.219 118.401 167.181C118.913 167.101 119.435 167.228 119.859 167.534C120.282 167.84 120.574 168.302 120.674 168.824Z" fill="#9F2731"/>
<path d="M112.47 170.144C112.519 170.397 112.518 170.658 112.466 170.91C112.414 171.163 112.312 171.402 112.168 171.613C112.023 171.824 111.838 172.003 111.624 172.138C111.41 172.274 111.172 172.363 110.923 172.401C110.411 172.481 109.889 172.355 109.465 172.049C109.041 171.743 108.749 171.28 108.65 170.759C108.6 170.506 108.602 170.245 108.654 169.992C108.706 169.74 108.807 169.501 108.952 169.29C109.096 169.079 109.281 168.9 109.495 168.764C109.709 168.629 109.948 168.539 110.196 168.501C110.709 168.421 111.231 168.548 111.655 168.854C112.078 169.16 112.37 169.622 112.47 170.144Z" fill="#9F2731"/>
<path d="M137.158 166.171C137.207 166.424 137.205 166.685 137.153 166.937C137.101 167.19 137 167.429 136.855 167.64C136.711 167.851 136.526 168.03 136.312 168.165C136.098 168.301 135.859 168.39 135.611 168.429C135.099 168.508 134.576 168.382 134.152 168.076C133.729 167.77 133.437 167.308 133.337 166.786C133.29 166.533 133.293 166.273 133.346 166.022C133.399 165.771 133.502 165.533 133.647 165.324C133.793 165.114 133.978 164.937 134.192 164.803C134.406 164.669 134.644 164.582 134.892 164.545C135.401 164.467 135.919 164.593 136.341 164.895C136.762 165.198 137.054 165.654 137.158 166.171Z" fill="#9F2731"/>
<path d="M145.385 164.847C145.435 165.1 145.434 165.361 145.382 165.614C145.331 165.867 145.23 166.106 145.085 166.318C144.94 166.529 144.755 166.708 144.54 166.843C144.326 166.978 144.087 167.067 143.838 167.105C143.326 167.183 142.804 167.056 142.381 166.75C141.958 166.444 141.665 165.983 141.564 165.462C141.515 165.209 141.517 164.948 141.569 164.696C141.621 164.443 141.722 164.204 141.867 163.993C142.011 163.782 142.196 163.603 142.41 163.468C142.624 163.332 142.863 163.243 143.111 163.204C143.623 163.125 144.146 163.251 144.569 163.557C144.993 163.863 145.285 164.325 145.385 164.847Z" fill="#9F2731"/>
</g>
<defs>
<filter id="filter0_d_56_943" x="0" y="0" width="248" height="230.861" filterUnits="userSpaceOnUse" color-interpolation-filters="sRGB">
<feFlood flood-opacity="0" result="BackgroundImageFix"/>
<feColorMatrix in="SourceAlpha" type="matrix" values="0 0 0 0 0 0 0 0 0 0 0 0 0 0 0 0 0 0 127 0" result="hardAlpha"/>
<feOffset dy="4"/>
<feGaussianBlur stdDeviation="2"/>
<feComposite in2="hardAlpha" operator="out"/>
<feColorMatrix type="matrix" values="0 0 0 0 0 0 0 0 0 0 0 0 0 0 0 0 0 0 0.25 0"/>
<feBlend mode="normal" in2="BackgroundImageFix" result="effect1_dropShadow_56_943"/>
<feBlend mode="normal" in="SourceGraphic" in2="effect1_dropShadow_56_943" result="shape"/>
</filter>
</defs>
</svg>
